{"title":"Boologam 2015 Movies DVDScr XviD New Source with Sample ~ ☻rDX☻","uid":13092435,"size":739481354,"categoryP":"video","categoryS":"movies","magnet":"?xt=urn:btih:7b7aff9e9c594d290143a3d038b52d6c26b4d9e0&amp;dn=Boologam+2015+Movies+DVDScr+XviD+New+Source+with+Sample+%7E+%E2%98%BBrDX%E2%98%BB&amp;tr=udp%3A%2F%2Ftracker.leechers-paradise.org%3A6969&amp;tr=udp%3A%2F%2Fzer0day.ch%3A1337&amp;tr=udp%3A%2F%2Fopen.demonii.com%3A1337&amp;tr=udp%3A%2F%2Ftracker.coppersurfer.tk%3A6969&amp;tr=udp%3A%2F%2Fexodus.desync.com%3A6969","seeders":1,"leechers":0,"uploader":"basicssom","files":2,"time":1451066086,"description":"----------------------------------------------------------------\r\nBoologam 2015 Tamil Movies DVDScr XviD AAC New Source with Sample ~ ☻rDX☻\r\n\r\nSCREEN SHOTS &amp; POSTER:\r\n  \nhttp://doctorhosts.com/2015/12/Boologam/11.html  \nhttp://doctorhosts.com/2015/12/Boologam/1.html  \nhttp://doctorhosts.com/2015/12/Boologam/2.html  \nhttp://doctorhosts.com/2015/12/Boologam/3.html  \nhttp://doctorhosts.com/2015/12/Boologam/4.html  \nhttp://doctorhosts.com/2015/12/Boologam/5.html  \nhttp://doctorhosts.com/2015/12/Boologam/6.html  \nhttp://doctorhosts.com/2015/12/Boologam/7.html  \nhttp://doctorhosts.com/2015/12/Boologam/8.html  \nhttp://doctorhosts.com/2015/12/Boologam/9.html  \nhttp://doctorhosts.com/2015/12/Boologam/10.html\r\n\r\nFormat                                   : Matroska\r\nFormat version                           : Version 4 / Version 2\r\nFile size                                : 699 MiB\r\nDuration                                 : 2h 14mn\r\nOverall bit rate                         : 728 Kbps\r\nMovie name                               : Boologam 2015 Tamil Movies DVDScr XviD AAC New Source ~ rDX ~\r\n\r\nVideo\r\nID                                       : 1\r\nFormat                                   : AVC\r\nFormat/Info                              : Advanced Video Codec\r\nFormat profile                           :   \r\nFormat settings, CABAC                   : Yes\r\nFormat settings, ReFrames                : 4 frames\r\nCodec ID                                 : V_MPEG4/ISO/AVC\r\nDuration                                 : 2h 14mn\r\nBit rate                                 : 630 Kbps\r\nWidth                                    : 608 pixels\r\nHeight                                   : 256 pixels\r\nDisplay aspect ratio                     : 2.40:1\r\nFrame rate mode                          : Constant\r\nFrame rate                               : 25.000 fps\r\nColor space                              : YUV\r\nChroma subsampling                       : 4:2:0\r\nBit depth                                : 8 bits\r\nScan type                                : Progressive\r\nBits/(Pixel*Frame)                       : 0.162\r\nStream size                              : 593 MiB (85%)\r\nTitle                                    : ~ rDX ~\r\nWriting library                          : XviD\r\nLanguage                                 : Tamil\r\nDefault                                  : Yes\r\nForced                                   : Yes\r\n\r\nAudio\r\nID                                       : 2\r\nFormat                                   : MPEG Audio\r\nFormat version                           : Version 1\r\nFormat profile                           : Layer 3\r\nMode                                     : Joint stereo\r\nMode extension                           : MS Stereo\r\nCodec ID                                 : A_MPEG/L3\r\nCodec ID/Hint                            : MP3\r\nDuration                                 : 2h 14mn\r\nBit rate mode                            : Constant\r\nBit rate                                 : 96.0 Kbps\r\nChannel(s)                               : 2 channels\r\nSampling rate                            : 48.0 KHz\r\nCompression mode                         : Lossy\r\nStream size                              : 92.2 MiB (13%)\r\nTitle                                    : ~ rDX ~\r\nLanguage                                 : Tamil\r\nDefault                                  : Yes\r\nForced                                   : Yes\r\n\r\nIMDB                                      \nhttp://www.imdb.com/title/tt3557988/","torrent":{"xt":"urn:btih:7b7aff9e9c594d290143a3d038b52d6c26b4d9e0","amp;dn":"Boologam+2015+Movies+DVDScr+XviD+New+Source+with+Sample+%7E+%E2%98%BBrDX%E2%98%BB","amp;tr":["udp%3A%2F%2Ftracker.leechers-paradise.org%3A6969","udp%3A%2F%2Fzer0day.ch%3A1337","udp%3A%2F%2Fopen.demonii.com%3A1337","udp%3A%2F%2Ftracker.coppersurfer.tk%3A6969","udp%3A%2F%2Fexodus.desync.com%3A6969"],"infoHash":"7b7aff9e9c594d290143a3d038b52d6c26b4d9e0","infoHashBuffer":{"type":"Buffer","data":[123,122,255,158,156,89,77,41,1,67,163,208,56,181,45,108,38,180,217,224]},"announce":[],"urlList":[]}}